<mxfile host="65bd71144e">
    <diagram id="izDKRjocz13XCrJrzfWl" name="Page-1">
        <mxGraphModel dx="1718" dy="955" grid="0" gridSize="10" guides="1" tooltips="1" connect="1" arrows="1" fold="1" page="1" pageScale="1" pageWidth="1100" pageHeight="850" background="#ffffff" math="0" shadow="0">
            <root>
                <mxCell id="0"/>
                <mxCell id="1" parent="0"/>
                <mxCell id="134" value="" style="endArrow=oval;html=1;fontColor=#000000;strokeColor=#B3B3B3;strokeWidth=1;startArrow=oval;startFill=1;endFill=1;" parent="1" edge="1">
                    <mxGeometry width="50" height="50" relative="1" as="geometry">
                        <mxPoint x="23" y="719" as="sourcePoint"/>
                        <mxPoint x="1078" y="719" as="targetPoint"/>
                    </mxGeometry>
                </mxCell>
                <mxCell id="130" value="" style="endArrow=oval;html=1;fontColor=#000000;strokeColor=#B3B3B3;strokeWidth=1;startArrow=oval;startFill=1;endFill=1;" parent="1" edge="1">
                    <mxGeometry width="50" height="50" relative="1" as="geometry">
                        <mxPoint x="23" y="143" as="sourcePoint"/>
                        <mxPoint x="1078" y="143" as="targetPoint"/>
                    </mxGeometry>
                </mxCell>
                <mxCell id="132" value="" style="endArrow=oval;html=1;fontColor=#000000;strokeColor=#B3B3B3;strokeWidth=1;startArrow=oval;startFill=1;endFill=1;" parent="1" edge="1">
                    <mxGeometry width="50" height="50" relative="1" as="geometry">
                        <mxPoint x="23" y="341" as="sourcePoint"/>
                        <mxPoint x="1078" y="341" as="targetPoint"/>
                    </mxGeometry>
                </mxCell>
                <mxCell id="133" value="" style="endArrow=oval;html=1;fontColor=#000000;strokeColor=#B3B3B3;strokeWidth=1;startArrow=oval;startFill=1;endFill=1;" parent="1" edge="1">
                    <mxGeometry width="50" height="50" relative="1" as="geometry">
                        <mxPoint x="23" y="500" as="sourcePoint"/>
                        <mxPoint x="1078" y="500" as="targetPoint"/>
                    </mxGeometry>
                </mxCell>
                <mxCell id="144" value="" style="endArrow=oval;html=1;fontColor=#000000;strokeColor=#B3B3B3;strokeWidth=1;startArrow=oval;startFill=1;endFill=1;" parent="1" edge="1">
                    <mxGeometry width="50" height="50" relative="1" as="geometry">
                        <mxPoint x="23" y="582" as="sourcePoint"/>
                        <mxPoint x="1078" y="582" as="targetPoint"/>
                    </mxGeometry>
                </mxCell>
                <mxCell id="146" value="" style="endArrow=oval;html=1;fontColor=#000000;strokeColor=#B3B3B3;strokeWidth=1;startArrow=oval;startFill=1;endFill=1;" parent="1" edge="1">
                    <mxGeometry width="50" height="50" relative="1" as="geometry">
                        <mxPoint x="23" y="795" as="sourcePoint"/>
                        <mxPoint x="1078" y="795" as="targetPoint"/>
                    </mxGeometry>
                </mxCell>
                <mxCell id="283" value="" style="endArrow=oval;html=1;fontColor=#000000;strokeColor=#B3B3B3;strokeWidth=1;startArrow=oval;startFill=1;endFill=1;" edge="1" parent="1">
                    <mxGeometry width="50" height="50" relative="1" as="geometry">
                        <mxPoint x="23" y="216" as="sourcePoint"/>
                        <mxPoint x="1078" y="216" as="targetPoint"/>
                    </mxGeometry>
                </mxCell>
                <mxCell id="82" style="edgeStyle=orthogonalEdgeStyle;html=1;exitX=1;exitY=0.5;exitDx=0;exitDy=0;entryX=0.5;entryY=0;entryDx=0;entryDy=0;fontFamily=Garamond;fontSize=20;fontColor=#000000;endArrow=classic;endFill=1;startArrow=none;startFill=0;strokeWidth=2;fillColor=#a0522d;strokeColor=#333333;" parent="1" source="76" target="80" edge="1">
                    <mxGeometry relative="1" as="geometry"/>
                </mxCell>
                <mxCell id="93" value="" style="endArrow=classic;html=1;fontFamily=Garamond;fontSize=20;fontColor=#000000;strokeWidth=2;entryX=0.5;entryY=0;entryDx=0;entryDy=0;exitX=0.5;exitY=1;exitDx=0;exitDy=0;endFill=1;startArrow=none;startFill=0;fillColor=#a0522d;strokeColor=#333333;" parent="1" source="80" target="223" edge="1">
                    <mxGeometry width="50" height="50" relative="1" as="geometry">
                        <mxPoint x="897" y="214" as="sourcePoint"/>
                        <mxPoint x="895" y="239" as="targetPoint"/>
                    </mxGeometry>
                </mxCell>
                <mxCell id="94" value="" style="endArrow=classic;html=1;fontFamily=Garamond;fontSize=20;fontColor=#000000;strokeWidth=2;endFill=1;startArrow=none;startFill=0;fillColor=#a0522d;strokeColor=#333333;entryX=0.5;entryY=0;entryDx=0;entryDy=0;exitX=0.5;exitY=1;exitDx=0;exitDy=0;" parent="1" source="223" edge="1" target="253">
                    <mxGeometry width="50" height="50" relative="1" as="geometry">
                        <mxPoint x="925" y="334" as="sourcePoint"/>
                        <mxPoint x="893" y="380" as="targetPoint"/>
                    </mxGeometry>
                </mxCell>
                <mxCell id="83" style="edgeStyle=orthogonalEdgeStyle;html=1;exitX=0;exitY=0.5;exitDx=0;exitDy=0;entryX=0.5;entryY=0;entryDx=0;entryDy=0;fontFamily=Garamond;fontSize=20;fontColor=#000000;startArrow=none;startFill=0;endArrow=classic;endFill=1;strokeWidth=2;fillColor=none;strokeColor=#333333;" parent="1" source="76" target="77" edge="1">
                    <mxGeometry relative="1" as="geometry"/>
                </mxCell>
                <mxCell id="90" value="" style="endArrow=classic;html=1;fontFamily=Garamond;fontSize=20;fontColor=#000000;strokeWidth=2;entryX=0.5;entryY=0;entryDx=0;entryDy=0;endFill=1;startArrow=none;startFill=0;fillColor=none;strokeColor=#333333;exitX=0.5;exitY=1;exitDx=0;exitDy=0;" parent="1" target="79" edge="1" source="76">
                    <mxGeometry width="50" height="50" relative="1" as="geometry">
                        <mxPoint x="604" y="143" as="sourcePoint"/>
                        <mxPoint x="605" y="184" as="targetPoint"/>
                    </mxGeometry>
                </mxCell>
                <mxCell id="92" value="" style="endArrow=classic;html=1;fontFamily=Garamond;fontSize=20;fontColor=#000000;strokeWidth=2;endFill=1;startArrow=none;startFill=0;fillColor=none;strokeColor=#333333;entryX=0.5;entryY=0;entryDx=0;entryDy=0;exitX=0.5;exitY=1;exitDx=0;exitDy=0;" parent="1" source="79" target="121" edge="1">
                    <mxGeometry width="50" height="50" relative="1" as="geometry">
                        <mxPoint x="605" y="231" as="sourcePoint"/>
                        <mxPoint x="604" y="237" as="targetPoint"/>
                    </mxGeometry>
                </mxCell>
                <mxCell id="104" value="" style="endArrow=classic;html=1;fontFamily=Garamond;fontSize=20;fontColor=#000000;strokeWidth=2;endFill=1;startArrow=none;startFill=0;fillColor=none;strokeColor=#333333;exitX=0.5;exitY=1;exitDx=0;exitDy=0;entryX=0.5;entryY=0;entryDx=0;entryDy=0;" parent="1" source="276" edge="1" target="76">
                    <mxGeometry width="50" height="50" relative="1" as="geometry">
                        <mxPoint x="604" y="78" as="sourcePoint"/>
                        <mxPoint x="605" y="95" as="targetPoint"/>
                    </mxGeometry>
                </mxCell>
                <mxCell id="102" value="" style="endArrow=classic;html=1;fontFamily=Garamond;fontSize=20;fontColor=#000000;strokeWidth=2;endFill=1;startArrow=none;startFill=0;fillColor=none;strokeColor=#333333;entryX=0.5;entryY=0;entryDx=0;entryDy=0;exitX=0.5;exitY=1;exitDx=0;exitDy=0;" parent="1" edge="1" target="122" source="77">
                    <mxGeometry width="50" height="50" relative="1" as="geometry">
                        <mxPoint x="285.65999999999997" y="210" as="sourcePoint"/>
                        <mxPoint x="286" y="238" as="targetPoint"/>
                    </mxGeometry>
                </mxCell>
                <mxCell id="103" value="" style="endArrow=classic;html=1;fontFamily=Garamond;fontSize=20;fontColor=#000000;strokeWidth=2;entryX=0.235;entryY=0;entryDx=0;entryDy=0;endFill=1;startArrow=none;startFill=0;fillColor=none;strokeColor=#333333;entryPerimeter=0;exitX=0.5;exitY=1;exitDx=0;exitDy=0;" parent="1" source="85" target="86" edge="1">
                    <mxGeometry width="50" height="50" relative="1" as="geometry">
                        <mxPoint x="294" y="468" as="sourcePoint"/>
                        <mxPoint x="294.048" y="498.03999999999996" as="targetPoint"/>
                    </mxGeometry>
                </mxCell>
                <mxCell id="123" value="" style="endArrow=classic;html=1;fontFamily=Garamond;fontSize=20;fontColor=#000000;strokeWidth=2;endFill=1;startArrow=none;startFill=0;fillColor=none;strokeColor=#333333;entryX=0.5;entryY=0;entryDx=0;entryDy=0;exitX=0.5;exitY=1;exitDx=0;exitDy=0;" parent="1" edge="1" target="120" source="122">
                    <mxGeometry width="50" height="50" relative="1" as="geometry">
                        <mxPoint x="294" y="328" as="sourcePoint"/>
                        <mxPoint x="544.866" y="369.9480000000001" as="targetPoint"/>
                    </mxGeometry>
                </mxCell>
                <mxCell id="76" value="Remapping : Half-Degree Reservoir Database" style="rounded=0;whiteSpace=wrap;html=1;fillColor=#DCDCDC;labelBackgroundColor=none;labelBorderColor=none;fontFamily=Garamond;fontSize=17;glass=0;strokeWidth=1;strokeColor=#808080;fontColor=#000000;sketch=0;" parent="1" vertex="1">
                    <mxGeometry x="384" y="88" width="440" height="40" as="geometry"/>
                </mxCell>
                <mxCell id="77" value="Irrigation" style="rounded=0;whiteSpace=wrap;html=1;glass=0;labelBackgroundColor=none;labelBorderColor=none;fontFamily=Garamond;fontSize=17;strokeWidth=1;fillColor=#DCDCDC;fontStyle=0;shadow=0;sketch=0;strokeColor=#808080;fontColor=#000000;" parent="1" vertex="1">
                    <mxGeometry x="169" y="160.5" width="250" height="40" as="geometry"/>
                </mxCell>
                <mxCell id="79" value="Flood Control" style="rounded=0;whiteSpace=wrap;html=1;glass=0;labelBackgroundColor=none;labelBorderColor=none;fontFamily=Garamond;fontSize=17;strokeWidth=1;fillColor=#DCDCDC;strokeColor=#808080;fontColor=#000000;" parent="1" vertex="1">
                    <mxGeometry x="504" y="160" width="200" height="40" as="geometry"/>
                </mxCell>
                <mxCell id="80" value="Hydropower" style="rounded=0;whiteSpace=wrap;html=1;glass=0;labelBackgroundColor=none;labelBorderColor=none;fontFamily=Garamond;fontSize=17;strokeWidth=1;fillColor=#DCDCDC;strokeColor=#808080;fontColor=#000000;" parent="1" vertex="1">
                    <mxGeometry x="775" y="160.5" width="300" height="40" as="geometry"/>
                </mxCell>
                <mxCell id="85" value="Irrigation Demand Estimation" style="rounded=0;whiteSpace=wrap;html=1;glass=0;labelBackgroundColor=none;labelBorderColor=none;fontFamily=Garamond;fontSize=17;strokeWidth=1;fillColor=#FFFFFF;fontStyle=0;shadow=0;sketch=0;strokeColor=#4D4D4D;fontColor=#000000;" parent="1" vertex="1">
                    <mxGeometry x="169" y="444" width="250" height="40" as="geometry"/>
                </mxCell>
                <mxCell id="86" value="Hanasaki Reservoir Operation Framework" style="rounded=0;whiteSpace=wrap;html=1;glass=0;labelBackgroundColor=none;labelBorderColor=none;fontFamily=Garamond;fontSize=17;strokeWidth=1;fillColor=#FFFFFF;fontStyle=0;shadow=0;sketch=0;strokeColor=#4D4D4D;fontColor=#000000;" parent="1" vertex="1">
                    <mxGeometry x="169" y="523" width="533" height="40" as="geometry"/>
                </mxCell>
                <mxCell id="87" value="SDP-Based Release Policy" style="rounded=0;whiteSpace=wrap;html=1;glass=0;labelBackgroundColor=none;labelBorderColor=none;fontFamily=Garamond;fontSize=17;strokeWidth=1;fillColor=#FFFFFF;strokeColor=#1A1A1A;fontColor=#000000;" parent="1" vertex="1">
                    <mxGeometry x="775" y="522" width="300" height="40" as="geometry"/>
                </mxCell>
                <mxCell id="89" value="&lt;span style=&quot;font-size: 17px;&quot;&gt;Modified River Transport Model (Routing)&lt;/span&gt;" style="rounded=0;whiteSpace=wrap;html=1;glass=0;labelBackgroundColor=none;labelBorderColor=none;fontFamily=Garamond;fontSize=17;strokeWidth=1;fillColor=#FFFFFF;strokeColor=#1A1A1A;fontColor=#000000;" parent="1" vertex="1">
                    <mxGeometry x="595" y="647" width="483.5" height="50" as="geometry"/>
                </mxCell>
                <mxCell id="99" value="" style="endArrow=classic;html=1;fontFamily=Garamond;fontSize=20;fontColor=#000000;strokeWidth=2;endFill=1;startArrow=none;startFill=0;fillColor=none;strokeColor=#333333;exitX=0.5;exitY=1;exitDx=0;exitDy=0;entryX=0.5;entryY=0;entryDx=0;entryDy=0;" parent="1" source="120" edge="1" target="85">
                    <mxGeometry width="50" height="50" relative="1" as="geometry">
                        <mxPoint x="293.86799999999994" y="394" as="sourcePoint"/>
                        <mxPoint x="294" y="427" as="targetPoint"/>
                    </mxGeometry>
                </mxCell>
                <mxCell id="107" value="The &lt;b style=&quot;font-size: 17px;&quot;&gt;&lt;i style=&quot;font-size: 17px;&quot;&gt;abcd &lt;/i&gt;&lt;/b&gt;Model (Runoff)" style="rounded=0;whiteSpace=wrap;html=1;glass=0;labelBackgroundColor=none;labelBorderColor=none;fontFamily=Garamond;fontSize=17;strokeWidth=1;fillColor=#FFFFFF;strokeColor=#4D4D4D;fontColor=#000000;" parent="1" vertex="1">
                    <mxGeometry x="168" y="646" width="155" height="50" as="geometry"/>
                </mxCell>
                <mxCell id="120" value="Delineating Reservoir Dependent Areas" style="rounded=0;whiteSpace=wrap;html=1;glass=0;labelBackgroundColor=none;labelBorderColor=none;fontFamily=Garamond;fontSize=17;strokeWidth=1;fillColor=#FFFFFF;fontStyle=0;shadow=0;sketch=0;strokeColor=#4D4D4D;fontColor=#000000;" parent="1" vertex="1">
                    <mxGeometry x="169" y="359" width="250" height="52" as="geometry"/>
                </mxCell>
                <mxCell id="121" value="Reservoir Storage, Naturalized Streamflow" style="rounded=0;whiteSpace=wrap;html=1;glass=0;labelBackgroundColor=none;labelBorderColor=none;fontFamily=Garamond;fontSize=17;strokeWidth=1;fillColor=#708090;fontStyle=0;shadow=0;sketch=0;strokeColor=#808080;fontColor=#ffffff;" parent="1" vertex="1">
                    <mxGeometry x="504" y="234" width="200" height="90" as="geometry"/>
                </mxCell>
                <mxCell id="127" style="edgeStyle=orthogonalEdgeStyle;html=1;exitX=1;exitY=0.5;exitDx=0;exitDy=0;fontColor=#000000;strokeColor=#333333;strokeWidth=2;startArrow=none;startFill=0;fillColor=#a0522d;entryX=0.568;entryY=-0.006;entryDx=0;entryDy=0;entryPerimeter=0;" parent="1" source="122" edge="1" target="86">
                    <mxGeometry relative="1" as="geometry">
                        <mxPoint x="472" y="500" as="targetPoint"/>
                    </mxGeometry>
                </mxCell>
                <mxCell id="122" value="Reservoir Storage, Flow Directions, Elevation, Naturalized Streamflow" style="rounded=0;whiteSpace=wrap;html=1;glass=0;labelBackgroundColor=none;labelBorderColor=none;fontFamily=Garamond;fontSize=17;strokeWidth=1;fillColor=#708090;fontStyle=0;shadow=0;sketch=0;strokeColor=#808080;fontColor=#ffffff;" parent="1" vertex="1">
                    <mxGeometry x="169" y="234" width="250" height="90" as="geometry"/>
                </mxCell>
                <mxCell id="139" value="Raw and &lt;br&gt;Remapped Data" style="text;html=1;strokeColor=none;fillColor=none;align=left;verticalAlign=middle;whiteSpace=wrap;rounded=0;fontColor=#000000;fontFamily=Garamond;fontSize=20;fontStyle=3;" parent="1" vertex="1">
                    <mxGeometry x="24" y="65" width="188" height="30" as="geometry"/>
                </mxCell>
                <mxCell id="140" value="&lt;div style=&quot;text-align: left&quot;&gt;&lt;span&gt;Reservoir&lt;/span&gt;&lt;/div&gt;Primary Purpose" style="text;html=1;strokeColor=none;fillColor=none;align=center;verticalAlign=middle;whiteSpace=wrap;rounded=0;fontColor=#000000;fontFamily=Garamond;fontSize=20;fontStyle=3;" parent="1" vertex="1">
                    <mxGeometry x="24" y="165" width="122" height="30" as="geometry"/>
                </mxCell>
                <mxCell id="141" value="Reservoir Operation Inputs" style="text;html=1;strokeColor=none;fillColor=none;align=left;verticalAlign=middle;whiteSpace=wrap;rounded=0;fontColor=#000000;fontFamily=Garamond;fontSize=20;fontStyle=3;" parent="1" vertex="1">
                    <mxGeometry x="24" y="264" width="128" height="30" as="geometry"/>
                </mxCell>
                <mxCell id="142" value="Reservoir Characterstics required for release estimation" style="text;html=1;strokeColor=none;fillColor=none;align=left;verticalAlign=middle;whiteSpace=wrap;rounded=0;fontColor=#000000;fontFamily=Garamond;fontSize=20;fontStyle=3;" parent="1" vertex="1">
                    <mxGeometry x="24" y="380" width="119" height="90" as="geometry"/>
                </mxCell>
                <mxCell id="143" value="Reservoir Operation" style="text;html=1;strokeColor=none;fillColor=none;align=left;verticalAlign=middle;whiteSpace=wrap;rounded=0;fontColor=#000000;fontFamily=Garamond;fontSize=20;fontStyle=3;" parent="1" vertex="1">
                    <mxGeometry x="24" y="528" width="60" height="30" as="geometry"/>
                </mxCell>
                <mxCell id="150" value="Runoff Generation and Flow Routing" style="text;html=1;strokeColor=none;fillColor=none;align=left;verticalAlign=middle;whiteSpace=wrap;rounded=0;fontColor=#000000;fontFamily=Garamond;fontSize=20;fontStyle=3;" parent="1" vertex="1">
                    <mxGeometry x="24" y="606" width="131" height="90" as="geometry"/>
                </mxCell>
                <mxCell id="151" value="Model Evaluation" style="text;html=1;strokeColor=none;fillColor=none;align=left;verticalAlign=middle;whiteSpace=wrap;rounded=0;fontColor=#000000;fontFamily=Garamond;fontSize=20;fontStyle=3;" parent="1" vertex="1">
                    <mxGeometry x="24" y="743" width="60" height="30" as="geometry"/>
                </mxCell>
                <mxCell id="154" value="" style="endArrow=oval;html=1;fontColor=#000000;strokeColor=#B3B3B3;strokeWidth=1;startArrow=oval;startFill=1;endFill=1;" parent="1" edge="1">
                    <mxGeometry width="50" height="50" relative="1" as="geometry">
                        <mxPoint x="23" y="14" as="sourcePoint"/>
                        <mxPoint x="1078" y="14" as="targetPoint"/>
                    </mxGeometry>
                </mxCell>
                <mxCell id="168" value="Process" style="text;html=1;strokeColor=none;fillColor=none;align=left;verticalAlign=bottom;whiteSpace=wrap;rounded=0;glass=0;fontColor=none;fontFamily=Garamond;fontSize=17;fontStyle=0" parent="1" vertex="1">
                    <mxGeometry x="754" y="817" width="70" height="25" as="geometry"/>
                </mxCell>
                <mxCell id="177" value="Output" style="text;html=1;strokeColor=none;fillColor=none;align=left;verticalAlign=bottom;whiteSpace=wrap;rounded=0;glass=0;fontColor=none;fontFamily=Garamond;fontSize=17;fontStyle=0" parent="1" vertex="1">
                    <mxGeometry x="611" y="817" width="70" height="25" as="geometry"/>
                </mxCell>
                <mxCell id="178" value="Input&amp;nbsp;" style="text;html=1;strokeColor=none;fillColor=none;align=left;verticalAlign=bottom;whiteSpace=wrap;rounded=0;glass=0;fontColor=none;fontFamily=Garamond;fontSize=17;fontStyle=0" parent="1" vertex="1">
                    <mxGeometry x="486" y="817" width="50" height="25" as="geometry"/>
                </mxCell>
                <mxCell id="220" value="Observation" style="text;html=1;strokeColor=none;fillColor=none;align=left;verticalAlign=bottom;whiteSpace=wrap;rounded=0;glass=0;fontColor=none;fontFamily=Garamond;fontSize=17;fontStyle=0" parent="1" vertex="1">
                    <mxGeometry x="315" y="817" width="90" height="25" as="geometry"/>
                </mxCell>
                <mxCell id="223" value="Reservoir Storage and Area, Dam Height, Installed Capacity, Maximum Turbine Flow &amp;amp; Naturalized Streamflow" style="rounded=0;whiteSpace=wrap;html=1;glass=0;labelBackgroundColor=none;labelBorderColor=none;fontFamily=Garamond;fontSize=17;strokeWidth=1;fillColor=#708090;fontStyle=0;shadow=0;sketch=0;strokeColor=#808080;fontColor=#ffffff;" parent="1" vertex="1">
                    <mxGeometry x="775" y="234" width="300" height="90" as="geometry"/>
                </mxCell>
                <mxCell id="227" value="&lt;span style=&quot;font-size: 17px;&quot;&gt;Surface Water Withdrawal&lt;/span&gt;" style="html=1;dashed=0;whitespace=wrap;rounded=0;fontColor=#ffffff;strokeColor=#314354;fillColor=#708090;fontFamily=Garamond;fontSize=17;" parent="1" vertex="1">
                    <mxGeometry x="355" y="598" width="214" height="35" as="geometry"/>
                </mxCell>
                <mxCell id="228" value="&lt;span style=&quot;font-size: 17px;&quot;&gt;Simulated Streamflow&lt;/span&gt;" style="whiteSpace=wrap;html=1;fontSize=17;fontFamily=Garamond;fillColor=#CADDE1;strokeColor=#808080;labelBackgroundColor=none;rounded=0;fontColor=#1A1A1A;" parent="1" vertex="1">
                    <mxGeometry x="779" y="738" width="298" height="40" as="geometry"/>
                </mxCell>
                <mxCell id="230" value="&lt;span style=&quot;font-size: 17px;&quot;&gt;GRDC Monthly Flow&lt;/span&gt;" style="whiteSpace=wrap;html=1;fontSize=17;fontFamily=Garamond;fillColor=#2E2E2E;strokeColor=#808080;rounded=0;glass=0;labelBackgroundColor=none;labelBorderColor=none;strokeWidth=1;fontColor=#FFFFFF;" parent="1" vertex="1">
                    <mxGeometry x="169" y="738" width="252" height="40" as="geometry"/>
                </mxCell>
                <mxCell id="232" value="&lt;span style=&quot;font-size: 17px;&quot;&gt;Model Evaluation at GRDC sites&lt;/span&gt;" style="whiteSpace=wrap;html=1;fontSize=17;fontFamily=Garamond;fillColor=#CADDE1;strokeColor=#808080;labelBackgroundColor=none;rounded=0;fontColor=#1A1A1A;" parent="1" vertex="1">
                    <mxGeometry x="473" y="738" width="260" height="40" as="geometry"/>
                </mxCell>
                <mxCell id="245" value="Reservoirs reclassification" style="text;html=1;strokeColor=none;fillColor=none;align=left;verticalAlign=bottom;whiteSpace=wrap;rounded=0;glass=0;fontColor=none;fontFamily=Garamond;fontSize=17;fontStyle=0" parent="1" vertex="1">
                    <mxGeometry x="901" y="817" width="182" height="25" as="geometry"/>
                </mxCell>
                <mxCell id="246" value="Legend" style="text;html=1;strokeColor=none;fillColor=none;align=left;verticalAlign=bottom;whiteSpace=wrap;rounded=0;glass=0;fontColor=none;fontFamily=Garamond;fontSize=17;fontStyle=1" parent="1" vertex="1">
                    <mxGeometry x="169" y="817" width="95.5" height="25" as="geometry"/>
                </mxCell>
                <mxCell id="247" value="" style="rounded=0;whiteSpace=wrap;html=1;glass=0;labelBackgroundColor=none;labelBorderColor=none;fontFamily=Garamond;fontSize=16;strokeWidth=1;fillColor=#DCDCDC;strokeColor=#808080;fontColor=#000000;" parent="1" vertex="1">
                    <mxGeometry x="844" y="817" width="50" height="20" as="geometry"/>
                </mxCell>
                <mxCell id="248" value="" style="rounded=0;whiteSpace=wrap;html=1;glass=0;labelBackgroundColor=none;labelBorderColor=none;fontFamily=Garamond;fontSize=16;strokeWidth=1;fillColor=#FFFFFF;fontStyle=0;shadow=0;sketch=0;strokeColor=#333333;fontColor=#000000;" parent="1" vertex="1">
                    <mxGeometry x="695" y="817" width="50" height="20" as="geometry"/>
                </mxCell>
                <mxCell id="249" value="" style="whiteSpace=wrap;html=1;fontSize=16;fontFamily=Garamond;fillColor=#CADDE1;strokeColor=#808080;labelBackgroundColor=none;rounded=0;fontColor=#1A1A1A;" parent="1" vertex="1">
                    <mxGeometry x="554" y="817" width="50" height="20" as="geometry"/>
                </mxCell>
                <mxCell id="250" value="" style="html=1;dashed=0;whitespace=wrap;rounded=0;fontColor=#ffffff;strokeColor=#808080;fillColor=#708090;fontSize=16;" parent="1" vertex="1">
                    <mxGeometry x="429" y="817" width="50" height="20" as="geometry"/>
                </mxCell>
                <mxCell id="252" value="" style="whiteSpace=wrap;html=1;fontSize=16;fontFamily=Garamond;fillColor=#2E2E2E;strokeColor=#808080;fontColor=#000000;rounded=0;glass=0;labelBackgroundColor=none;labelBorderColor=none;strokeWidth=1;" parent="1" vertex="1">
                    <mxGeometry x="259" y="817" width="50" height="20" as="geometry"/>
                </mxCell>
                <mxCell id="254" value="" style="endArrow=classic;html=1;fontFamily=Garamond;fontSize=20;fontColor=#000000;strokeWidth=2;endFill=1;startArrow=none;startFill=0;fillColor=#a0522d;strokeColor=#333333;entryX=0.5;entryY=0;entryDx=0;entryDy=0;exitX=0.5;exitY=1;exitDx=0;exitDy=0;" parent="1" source="253" target="87" edge="1">
                    <mxGeometry width="50" height="50" relative="1" as="geometry">
                        <mxPoint x="934" y="458" as="sourcePoint"/>
                        <mxPoint x="892.41" y="498" as="targetPoint"/>
                    </mxGeometry>
                </mxCell>
                <mxCell id="253" value="Developing Storage-Elevation Relationship &lt;br style=&quot;font-size: 17px;&quot;&gt;(Based on Assumed Rservoir Shape)" style="rounded=0;whiteSpace=wrap;html=1;glass=0;labelBackgroundColor=none;labelBorderColor=none;fontFamily=Garamond;fontSize=17;strokeWidth=1;fillColor=#FFFFFF;strokeColor=#1A1A1A;fontColor=#000000;" parent="1" vertex="1">
                    <mxGeometry x="775" y="388" width="300" height="74" as="geometry"/>
                </mxCell>
                <mxCell id="267" value="" style="edgeStyle=segmentEdgeStyle;endArrow=classic;html=1;exitX=0;exitY=0.5;exitDx=0;exitDy=0;strokeColor=#000000;rounded=1;strokeWidth=2;entryX=1;entryY=0.5;entryDx=0;entryDy=0;" edge="1" parent="1" source="228" target="232">
                    <mxGeometry width="50" height="50" relative="1" as="geometry">
                        <mxPoint x="569" y="782" as="sourcePoint"/>
                        <mxPoint x="635" y="792" as="targetPoint"/>
                        <Array as="points">
                            <mxPoint x="754" y="758"/>
                            <mxPoint x="754" y="758"/>
                        </Array>
                    </mxGeometry>
                </mxCell>
                <mxCell id="268" value="" style="edgeStyle=segmentEdgeStyle;endArrow=classic;html=1;rounded=1;strokeColor=#000000;strokeWidth=2;exitX=1;exitY=0.5;exitDx=0;exitDy=0;entryX=0;entryY=0.5;entryDx=0;entryDy=0;" edge="1" parent="1" source="230" target="232">
                    <mxGeometry width="50" height="50" relative="1" as="geometry">
                        <mxPoint x="801" y="586" as="sourcePoint"/>
                        <mxPoint x="333" y="785" as="targetPoint"/>
                        <Array as="points">
                            <mxPoint x="445" y="758"/>
                            <mxPoint x="445" y="758"/>
                        </Array>
                    </mxGeometry>
                </mxCell>
                <mxCell id="269" value="" style="edgeStyle=segmentEdgeStyle;endArrow=classic;html=1;rounded=1;strokeColor=#000000;strokeWidth=2;entryX=0.5;entryY=0;entryDx=0;entryDy=0;exitX=0.687;exitY=1.006;exitDx=0;exitDy=0;exitPerimeter=0;" edge="1" parent="1" source="89" target="228">
                    <mxGeometry width="50" height="50" relative="1" as="geometry">
                        <mxPoint x="928" y="676" as="sourcePoint"/>
                        <mxPoint x="594" y="687" as="targetPoint"/>
                    </mxGeometry>
                </mxCell>
                <mxCell id="270" value="" style="edgeStyle=segmentEdgeStyle;endArrow=classic;html=1;rounded=1;strokeColor=#000000;strokeWidth=2;exitX=1;exitY=0.5;exitDx=0;exitDy=0;entryX=0;entryY=0.5;entryDx=0;entryDy=0;" edge="1" parent="1" source="107" target="89">
                    <mxGeometry width="50" height="50" relative="1" as="geometry">
                        <mxPoint x="550" y="457" as="sourcePoint"/>
                        <mxPoint x="600" y="407" as="targetPoint"/>
                    </mxGeometry>
                </mxCell>
                <mxCell id="271" value="" style="edgeStyle=segmentEdgeStyle;endArrow=classic;html=1;rounded=1;strokeColor=#000000;strokeWidth=2;exitX=0.5;exitY=1;exitDx=0;exitDy=0;" edge="1" parent="1" source="227">
                    <mxGeometry width="50" height="50" relative="1" as="geometry">
                        <mxPoint x="462" y="642" as="sourcePoint"/>
                        <mxPoint x="462" y="670" as="targetPoint"/>
                        <Array as="points"/>
                    </mxGeometry>
                </mxCell>
                <mxCell id="272" value="" style="edgeStyle=segmentEdgeStyle;endArrow=classic;html=1;rounded=1;strokeColor=#000000;strokeWidth=2;exitX=0.5;exitY=1;exitDx=0;exitDy=0;entryX=0.683;entryY=0.006;entryDx=0;entryDy=0;entryPerimeter=0;" edge="1" parent="1" source="87" target="89">
                    <mxGeometry width="50" height="50" relative="1" as="geometry">
                        <mxPoint x="406" y="580" as="sourcePoint"/>
                        <mxPoint x="456" y="530" as="targetPoint"/>
                        <Array as="points"/>
                    </mxGeometry>
                </mxCell>
                <mxCell id="273" value="" style="edgeStyle=segmentEdgeStyle;endArrow=classic;html=1;rounded=1;strokeColor=#000000;strokeWidth=2;entryX=0.02;entryY=-0.001;entryDx=0;entryDy=0;entryPerimeter=0;exitX=0.817;exitY=1.004;exitDx=0;exitDy=0;exitPerimeter=0;" edge="1" parent="1" source="86" target="89">
                    <mxGeometry width="50" height="50" relative="1" as="geometry">
                        <mxPoint x="605" y="538" as="sourcePoint"/>
                        <mxPoint x="604" y="596" as="targetPoint"/>
                    </mxGeometry>
                </mxCell>
                <mxCell id="274" value="" style="edgeStyle=segmentEdgeStyle;endArrow=classic;html=1;rounded=1;strokeColor=#000000;strokeWidth=2;exitX=0.5;exitY=1;exitDx=0;exitDy=0;entryX=0.816;entryY=0;entryDx=0;entryDy=0;entryPerimeter=0;" edge="1" parent="1" source="121" target="86">
                    <mxGeometry width="50" height="50" relative="1" as="geometry">
                        <mxPoint x="604" y="328" as="sourcePoint"/>
                        <mxPoint x="604" y="498" as="targetPoint"/>
                    </mxGeometry>
                </mxCell>
                <mxCell id="276" value="&lt;span style=&quot;font-size: 17px;&quot;&gt;GranD Reservoirs Database&lt;/span&gt;" style="html=1;dashed=0;whitespace=wrap;rounded=0;fontColor=#ffffff;strokeColor=#314354;fillColor=#708090;fontFamily=Garamond;fontSize=17;" vertex="1" parent="1">
                    <mxGeometry x="474" y="22" width="260" height="40" as="geometry"/>
                </mxCell>
            </root>
        </mxGraphModel>
    </diagram>
</mxfile>